<svg width="10" height="10" viewBox="0 0 10 10" fill="none" xmlns="http://www.w3.org/2000/svg">
<g clip-path="url(#clip0_292_555)">
<path d="M5 10C7.76142 10 10 7.76142 10 5C10 2.23858 7.76142 0 5 0C2.23858 0 0 2.23858 0 5C0 7.76142 2.23858 10 5 10Z" fill="#F1B32B"/>
<path d="M4.92188 1.25C2.89375 1.25 1.25 2.89375 1.25 4.92188C1.25 6.95 2.89375 8.59375 4.92188 8.59375C6.95 8.59375 8.59375 6.95 8.59375 4.92188C8.59375 3.94803 8.20689 3.01408 7.51828 2.32547C6.82967 1.63686 5.89572 1.25 4.92188 1.25ZM4.92188 7.67812C4.19087 7.67812 3.48981 7.38773 2.97291 6.87084C2.45601 6.35394 2.16562 5.65288 2.16562 4.92188C2.16562 4.19087 2.45601 3.48981 2.97291 2.97291C3.48981 2.45601 4.19087 2.16562 4.92188 2.16562C5.65288 2.16562 6.35394 2.45601 6.87084 2.97291C7.38773 3.48981 7.67812 4.19087 7.67812 4.92188C7.67812 5.65288 7.38773 6.35394 6.87084 6.87084C6.35394 7.38773 5.65288 7.67812 4.92188 7.67812ZM4.00625 4.925L4.925 6.3L5.8375 4.925L4.925 3.54688L4.00625 4.925Z" fill="white"/>
</g>
<defs>
<clipPath id="clip0_292_555">
<rect width="10" height="10" fill="white"/>
</clipPath>
</defs>
</svg>
